<svg width="660" height="498" viewBox="0 0 660 498" fill="none" xmlns="http://www.w3.org/2000/svg">
<path d="M209.243 62.7569L237.173 70.0925C238.839 70.53 239.835 72.2367 239.398 73.9045C238.961 75.5723 237.256 76.5697 235.59 76.1321L207.66 68.7966C205.994 68.359 204.998 66.6523 205.435 64.9845C205.872 63.3167 207.577 62.3194 209.243 62.7569Z" fill="#FFD200"/>
<path opacity="0.3" d="M342.342 445.786C250.486 445.786 176.022 435.129 176.022 421.983C176.022 408.837 250.486 398.18 342.342 398.18C434.198 398.18 508.662 408.837 508.662 421.983C508.662 435.129 434.198 445.786 342.342 445.786Z" fill="#E6E6E6"/>
<path d="M339.339 395.57C339.339 395.57 322.938 392.762 320.232 409.445C320.179 409.792 320.196 410.146 320.282 410.487C320.369 410.827 320.523 411.146 320.735 411.425C320.948 411.704 321.215 411.938 321.519 412.111C321.824 412.285 322.161 412.395 322.509 412.435C329.807 413.301 337.188 413.179 344.454 412.072C357.192 409.991 349.8 394.182 339.339 395.57Z" fill="#EFEFEF"/>
<path d="M431.145 414.186C431.145 414.186 427.433 387.922 408.045 380.885L365.986 373.468C365.986 373.468 336.006 376.127 337.21 412.667C368.174 418.845 399.998 419.36 431.145 414.186Z" fill="#E6E6E6"/>
<path d="M257.169 270.028C257.169 270.028 282.48 263.421 279.955 277.478V372.179H270.979C269.443 372.179 267.97 371.569 266.884 370.481C265.798 369.394 265.188 367.919 265.188 366.381V343.602C262.465 343.239 259.462 341.653 258.67 336.648C257.136 327.001 258.67 283.871 258.67 283.871C258.67 283.871 239.398 279.807 228.244 285.903V273.2L257.169 270.028Z" fill="#FFD200"/>
<path d="M271.491 50.2809C271.491 50.2809 226.182 86.8036 228.591 161.17C228.591 161.17 201.152 74.5137 227.898 29.6161L271.491 50.2809Z" fill="#FFD200"/>
<path opacity="0.46" d="M271.491 50.2809C271.491 50.2809 226.182 86.8036 228.591 161.17C228.591 161.17 201.152 74.5137 227.898 29.6161L271.491 50.2809Z" fill="white"/>
<path d="M403.392 116.851C403.392 116.851 442.992 193.481 394.268 203.888C345.543 214.294 331.815 152.234 331.815 152.234C331.815 152.234 339.554 122.5 352.473 123.178C365.393 123.855 377.322 147.262 384.45 164.276C384.938 165.445 385.798 166.421 386.896 167.052C387.994 167.683 389.269 167.934 390.523 167.767C391.778 167.599 392.943 167.023 393.838 166.126C394.732 165.229 395.307 164.062 395.472 162.806C397.122 150.764 401.297 134.724 393.377 120.287C393.377 120.287 382.355 113.564 386.15 104.462C389.945 95.3603 403.392 103.157 403.392 116.851Z" fill="#F4A28C"/>
<path opacity="0.58" d="M225.341 399.32C225.341 399.32 237.567 396.016 240.191 384.585C240.191 384.585 221.249 380.753 220.704 400.327L225.341 399.32Z" fill="#F05454"/>
<path opacity="0.73" d="M223.856 398.18C223.856 398.18 232.386 384.651 224.879 372.014C224.879 372.014 210.474 381.182 216.876 398.213L223.856 398.18Z" fill="#F05454"/>
<path d="M221.644 398.18C221.644 398.18 217.14 383.908 203.494 381.199C203.494 381.199 200.937 390.482 212.322 398.229L221.644 398.18Z" fill="#F05454"/>
<path d="M230.521 397.866L228.03 414.847L212.421 414.913L210.128 397.948L230.521 397.866Z" fill="#30475E"/>
<path d="M414.793 141.249L396.544 144.933L393.244 120.353C393.244 120.353 383.344 115.133 383.559 108.906C383.527 107.594 383.804 106.294 384.366 105.109C384.929 103.925 385.761 102.889 386.797 102.085C387.832 101.282 389.042 100.733 390.328 100.483C391.614 100.233 392.941 100.289 394.201 100.646C400.801 102.48 403.441 113.002 405.603 120.386C407.764 127.77 414.793 141.249 414.793 141.249Z" fill="#30475E"/>
<path d="M238.515 70.4646L436.099 122.358C437.765 122.796 438.761 124.503 438.324 126.17C437.887 127.838 436.182 128.835 434.516 128.398L236.932 76.5043C235.266 76.0667 234.27 74.36 234.707 72.6922C235.144 71.0244 236.849 70.0271 238.515 70.4646Z" fill="#FFD200"/>
<path d="M375.903 154.051C376.039 149.73 375.318 145.426 373.781 141.386C372.245 137.346 369.923 133.652 366.951 130.516C363.978 127.381 360.414 124.867 356.465 123.119C352.516 121.372 348.259 120.426 343.942 120.336C321.387 119.874 286.192 108.972 272.844 129.042C252.45 159.899 285.45 246.72 285.45 246.72H346.417C346.417 246.72 374.731 188.492 375.903 154.051Z" fill="#F05454"/>
<path d="M331.386 88.6537L322.179 121.113L341.451 129.042L340.742 101.026L331.386 88.6537Z" fill="#F4A28C"/>
<path opacity="0.31" d="M341.154 107.155C338.661 106.21 336.503 104.549 334.95 102.381C334.95 102.381 334.439 109.252 341.121 116.884L341.154 107.155Z" fill="#CE8172"/>
<path d="M352.407 89.7109C352.407 89.7109 351.45 101.142 348.15 108.278C347.837 108.968 347.39 109.59 346.837 110.108C346.283 110.625 345.632 111.028 344.923 111.294C344.213 111.559 343.458 111.682 342.701 111.655C341.944 111.628 341.199 111.451 340.511 111.136C336.947 109.484 332.591 106.18 332.393 99.969L330.743 89.5127C330.641 87.3835 331.2 85.275 332.344 83.4768C333.487 81.6785 335.158 80.2786 337.128 79.4693C344.355 76.017 353.381 82.7896 352.407 89.7109Z" fill="#F4A28C"/>
<path d="M349.52 89.6778C346.013 89.1989 342.574 88.3119 339.273 87.0349C340.009 88.7465 340.228 90.6368 339.903 92.4717C339.577 94.3067 338.722 96.0059 337.442 97.359C336.226 98.6971 334.584 99.5706 332.796 99.8297C331.008 100.089 329.185 99.7177 327.641 98.7796L330.396 84.3093C330.723 82.2243 331.607 80.2666 332.955 78.6439C334.303 77.0211 336.064 75.7937 338.052 75.0919C339.765 74.4692 341.518 73.9615 343.299 73.5722C347.771 72.6471 353.381 76.5125 357.621 74.3651C358.048 74.1515 358.523 74.0521 359 74.0764C359.477 74.1008 359.94 74.248 360.343 74.5039C360.746 74.7598 361.077 75.1157 361.302 75.5371C361.528 75.9584 361.641 76.431 361.631 76.9089C361.499 81.4516 359.469 88.2407 353.084 89.5952C351.908 89.821 350.704 89.8489 349.52 89.6778Z" fill="#30475E"/>
<path d="M338.712 97.2434C338.712 97.2434 339.389 92.8825 336.072 92.6347C332.756 92.3869 331.716 98.6805 336.072 100.068L338.712 97.2434Z" fill="#F4A28C"/>
<path d="M351.45 96.8799L353.81 101.836C353.943 102.115 354.004 102.424 353.987 102.733C353.969 103.042 353.873 103.342 353.708 103.605C353.544 103.867 353.315 104.083 353.044 104.233C352.773 104.383 352.469 104.462 352.16 104.462H347.704L351.45 96.8799Z" fill="#F4A28C"/>
<path d="M399.201 108.839C399.201 108.839 401.296 115.563 393.888 114.604C386.48 113.646 384.384 112.953 383.625 108.839C382.866 104.726 396.924 104.412 399.201 108.839Z" fill="#F4A28C"/>
<path d="M347.672 120.287C347.672 120.287 348.348 114.786 341.072 114.704C338.39 115.915 335.407 116.295 332.507 115.795C329.608 115.294 326.924 113.936 324.803 111.895C324.803 111.895 310.959 111.763 309.837 122.897C308.715 134.03 334.95 162.409 334.95 162.409C334.95 162.409 350.889 139.68 347.672 120.287Z" fill="#F05454"/>
<path opacity="0.09" d="M299.508 137.136C302.297 140.661 304.324 144.728 305.46 149.079C306.596 153.429 306.817 157.969 306.108 162.409C303.451 177.028 281.11 218.259 305.332 246.654H285.532C285.912 247.992 274.114 210.941 270.814 196.091C268.785 187.105 299.508 137.136 299.508 137.136Z" fill="black"/>
<path opacity="0.68" d="M347.672 120.287C347.672 120.287 348.348 114.786 341.072 114.704C338.39 115.915 335.407 116.295 332.507 115.795C329.608 115.294 326.924 113.936 324.803 111.895C324.803 111.895 310.959 111.763 309.837 122.897C308.715 134.03 334.95 162.409 334.95 162.409C334.95 162.409 350.889 139.68 347.672 120.287Z" fill="white"/>
<path d="M299.607 146.981C303.732 130.182 285.434 116.57 270.699 125.589C258.076 133.32 245.949 147.873 242.814 175.261C235.835 237.173 242.814 268.129 242.814 268.129L255.866 265.601C255.866 265.601 265.765 184.825 284.51 173.312C292.38 168.472 297 157.768 299.607 146.981Z" fill="#F4A28C"/>
<path d="M287.578 170.983C287.578 170.983 260.436 162.575 246.989 151.408C246.989 151.408 242.435 164.094 242.814 175.261C252.827 180.487 263.429 184.491 274.395 187.187C279.183 182.119 283.589 176.702 287.578 170.983Z" fill="#30475E"/>
<path d="M255.865 265.601C255.865 265.601 264.214 289.338 252.054 289.355C233.442 289.355 242.814 268.129 242.814 268.129L255.865 265.601Z" fill="#30475E"/>
<path opacity="0.46" d="M262.713 285.985C262.713 282.674 265.395 279.989 268.703 279.989C272.01 279.989 274.692 282.674 274.692 285.985V332.419C274.692 335.731 272.01 338.415 268.703 338.415C265.395 338.415 262.713 335.731 262.713 332.419V285.985Z" fill="white"/>
<path d="M346.418 246.72C346.418 246.72 423.968 260.959 410.999 300.456C398.03 339.952 387.42 358.981 387.42 358.981L371.564 351.366L378.048 309.409C378.379 307.27 378.272 305.087 377.734 302.991C377.195 300.896 376.235 298.932 374.914 297.219C373.593 295.507 371.937 294.082 370.047 293.031C368.158 291.98 366.074 291.325 363.924 291.106C335.726 288.215 282.15 278.519 285.516 246.72H346.418Z" fill="#30475E"/>
<path d="M285.45 246.72L289.377 397.04H306.537C306.537 397.04 305.778 302.438 335.693 264.627L285.45 246.72Z" fill="#30475E"/>
<path d="M407.995 317.982L378.048 309.409L368.791 358.981L365.937 373.451L407.995 380.868L388.558 363.92L407.995 317.982Z" fill="#F05454"/>
<path d="M371.564 253.774L355.542 291.222L336.881 287.687L353.018 248.174C359.371 249.417 365.584 251.293 371.564 253.774Z" fill="#FFD200"/>
<path d="M311.371 336.136L287.908 338.432L288.321 390.829C288.351 394.739 287.138 398.558 284.856 401.731L274.692 415.822L301.306 411.312L311.371 408.966L307.774 395.57L311.371 336.136Z" fill="#F05454"/>
<path d="M441.128 400.377C432.432 391.457 408.326 392.481 405.108 402.177C403.887 405.844 402.93 409.495 402.22 412.633C401.94 413.86 401.903 415.13 402.112 416.371C402.322 417.612 402.774 418.8 403.442 419.866C404.11 420.932 404.981 421.856 406.006 422.585C407.031 423.314 408.189 423.833 409.415 424.114C420.75 426.707 467.165 427.087 441.128 400.377Z" fill="#D3D3D3"/>
<path d="M386.034 319.27L374.748 316.479L367.273 358.981L376.646 360.881L386.034 319.27Z" fill="#F05454"/>
<path opacity="0.35" d="M386.034 319.27L374.748 316.479L367.273 358.981L376.646 360.881L386.034 319.27Z" fill="white"/>
<path d="M356.763 223.297C356.763 223.297 352.192 238.758 346.417 246.72H285.45C282.407 239.072 279.817 231.251 277.695 223.297C277.695 223.297 307.84 230.169 356.763 223.297Z" fill="#FFD200"/>
<path d="M279.543 233.935H307.56V261.984H279.543V233.935Z" fill="#FFD200"/>
<path opacity="0.09" d="M279.543 233.935H307.56V261.984H279.543V233.935Z" fill="black"/>
<path d="M293.552 247.332C291.574 247.332 289.971 245.727 289.971 243.747C289.971 241.767 291.574 240.163 293.552 240.163C295.529 240.163 297.132 241.767 297.132 243.747C297.132 245.727 295.529 247.332 293.552 247.332Z" fill="white"/>
</svg>
